<?xml version="1.0" standalone="no"?><!DOCTYPE svg PUBLIC "-//W3C//DTD SVG 1.1//EN" "http://www.w3.org/Graphics/SVG/1.1/DTD/svg11.dtd"><svg t="1742087994308" class="icon" viewBox="0 0 1024 1024" version="1.1" xmlns="http://www.w3.org/2000/svg" p-id="1592" xmlns:xlink="http://www.w3.org/1999/xlink" width="200" height="200"><path d="M512.5 491.5m-347.5 0a347.5 347.5 0 1 0 695 0 347.5 347.5 0 1 0-695 0Z" fill="#89B7F5" p-id="1593"></path><path d="M512.5 839c-46.9 0-92.4-9.2-135.3-27.3-41.4-17.5-78.5-42.6-110.5-74.5s-57-69.1-74.5-110.5C174.2 583.9 165 538.4 165 491.5s9.2-92.4 27.3-135.3c17.5-41.4 42.6-78.5 74.5-110.5s69.1-57 110.5-74.5C420.1 153.2 465.6 144 512.5 144s92.4 9.2 135.3 27.3c41.4 17.5 78.5 42.6 110.5 74.5s57 69.1 74.5 110.5c18.1 42.8 27.3 88.4 27.3 135.3s-9.2 92.4-27.3 135.3c-17.5 41.4-42.6 78.5-74.5 110.5s-69.1 57-110.5 74.5c-42.9 17.9-88.4 27.1-135.3 27.1z m0-685C326.4 154 175 305.4 175 491.5S326.4 829 512.5 829 850 677.6 850 491.5 698.6 154 512.5 154z" fill="#707070" p-id="1594"></path><path d="M512.5 491.5m-290.5 0a290.5 290.5 0 1 0 581 0 290.5 290.5 0 1 0-581 0Z" fill="#B6CDEF" p-id="1595"></path><path d="M512.5 782c-77.6 0-150.5-30.2-205.4-85.1S222 569.1 222 491.5C222 413.9 252.2 341 307.1 286.1S434.9 201 512.5 201C590.1 201 663 231.2 717.9 286.1S803 413.9 803 491.5c0 77.6-30.2 150.5-85.1 205.4S590.1 782 512.5 782z m0-571C357.8 211 232 336.8 232 491.5S357.8 772 512.5 772 793 646.2 793 491.5 667.2 211 512.5 211z" fill="#707070" p-id="1596"></path><path d="M528.2 504h-29.1c-3.3 0-6.5-1.4-8.7-3.8-2.2-2.4-3.4-5.7-3.2-9l14.5-189.7c0.5-6.6 6.2-11.5 12.8-11 5.9 0.5 10.5 5.1 11 11L540 491.3c0.3 3.3-0.9 6.6-3.2 9-2.2 2.3-5.4 3.7-8.6 3.7z m-16.3-23.7h3.4l-1.7-22.1-1.7 22.1z" fill="#89B7F5" p-id="1597"></path><path d="M499 509c-4.6 0-9.1-2-12.3-5.4-3.1-3.4-4.8-8-4.5-12.6l14.5-189.8c0.3-4.5 2.4-8.6 5.9-11.6s7.8-4.4 12.3-4c8.4 0.6 14.9 7.2 15.6 15.6L545 490.9c0.4 4.7-1.3 9.4-4.5 12.8-3.1 3.3-7.6 5.3-12.2 5.3H499z m14.6-213.4c-1.6 0-3.2 0.6-4.5 1.7-1.4 1.2-2.3 2.9-2.4 4.7l-14.5 189.7c-0.1 1.9 0.6 3.8 1.9 5.2 1.3 1.4 3.1 2.2 4.9 2.2H528.2c1.8 0 3.7-0.8 5-2.2 1.3-1.4 2-3.2 1.8-5.1L520.5 302c-0.3-3.4-2.9-6.1-6.4-6.4h-0.5z m7.1 189.7h-14.2l2.2-27.5h10l2 27.5z" fill="#707070" p-id="1598"></path><path d="M628.5 622.6c-2.8 0-5.6-1-7.8-2.9l-128.3-110c-2.5-2.1-4-5.2-4.1-8.6-0.2-3.3 1.1-6.5 3.5-8.9L510 474c4.6-4.7 12.2-4.7 16.8 0 0.2 0.2 0.4 0.4 0.6 0.7l110 128.3c4.1 4.7 3.8 11.8-0.6 16.2-2.2 2.1-5.2 3.4-8.3 3.4zM517.7 499.9l0.7 0.6-0.7-0.6z" fill="#89B7F5" p-id="1599"></path><path d="M628.6 627.6s-0.1 0 0 0c-4.1 0-8-1.4-11-4L489.2 513.5c-3.6-3-5.7-7.5-5.9-12.2-0.2-4.7 1.6-9.3 5-12.6l18.2-18.2c6.6-6.6 17.3-6.6 23.9 0l0.9 0.9 110.1 128.4c5.7 6.7 5.3 16.8-0.9 23-3.3 3-7.5 4.8-11.9 4.8zM518.4 475.5c-1.8 0-3.5 0.7-4.9 2l-18.2 18.2c-1.4 1.4-2.1 3.2-2 5.1v0.1c0 1.9 0.9 3.6 2.3 4.8L624 615.9c1.2 1.1 2.9 1.6 4.5 1.6 1.8 0 3.5-0.7 4.7-2 2.5-2.5 2.7-6.6 0.4-9.4l-110-128.3c-0.1-0.1-0.2-0.2-0.3-0.4-1.3-1.2-3.1-1.9-4.9-1.9z m-3.3 28.8l-4.7-4.2 7.6-7.6 4.2 4.7-3.5 3.5 2.7 2.7-0.1 0.1-2.7-2.7-3.5 3.5z" fill="#707070" p-id="1600"></path><path d="M300.2 586.7c-6.5 0-11.9-5.2-11.9-11.8 0-4.9 3-9.3 7.6-11.1l210.7-82.6c6.1-2.5 13 0.4 15.5 6.5s-0.4 13-6.5 15.5c-0.1 0-0.2 0.1-0.3 0.1L304.5 586c-1.3 0.5-2.8 0.7-4.3 0.7z" fill="#89B7F5" p-id="1601"></path><path d="M300.2 591.7c-9.3 0-16.8-7.5-16.9-16.8 0-6.9 4.3-13.3 10.7-15.8l210.7-82.6c4.1-1.7 8.7-1.7 12.8 0.1 4.2 1.7 7.4 5 9.1 9.2 3.5 8.6-0.6 18.5-9.2 22-0.2 0.1-0.3 0.1-0.5 0.2l-210.8 82.6c-1.9 0.7-3.9 1.1-5.9 1.1z m210.9-106.4c-0.9 0-1.8 0.2-2.6 0.5l-210.8 82.7c-2.6 1-4.4 3.6-4.4 6.4 0 3.8 3.1 6.8 6.9 6.8 0.9 0 1.7-0.2 2.6-0.5l210.9-82.7c3.5-1.4 5.2-5.4 3.7-9-0.7-1.7-2-3-3.7-3.7-0.8-0.3-1.7-0.5-2.6-0.5z" fill="#707070" p-id="1602"></path><path d="M489.7 492.2c0 13.2 10.7 23.8 23.8 23.8 13.2 0 23.8-10.7 23.8-23.8s-10.7-23.8-23.8-23.8c-13.1-0.1-23.8 10.6-23.8 23.8z" fill="#B6CDEF" p-id="1603"></path><path d="M513.6 528c-19.7 0-35.7-16-35.7-35.7s16-35.7 35.7-35.7c19.7 0 35.7 16 35.7 35.7 0 19.7-16 35.7-35.7 35.7z m0-47.8c-6.6 0-12 5.4-12 12s5.4 12 12 12 12-5.4 12-12c-0.1-6.6-5.4-12-12-12z" fill="#89B7F5" p-id="1604"></path><path d="M513.6 533c-22.5 0-40.7-18.3-40.7-40.7 0-22.5 18.3-40.7 40.7-40.7 22.5 0 40.7 18.3 40.7 40.7 0 22.4-18.3 40.7-40.7 40.7z m0-71.5c-16.9 0-30.7 13.8-30.7 30.7s13.8 30.7 30.7 30.7 30.7-13.8 30.7-30.7-13.8-30.7-30.7-30.7z m0 47.6c-9.4 0-17-7.6-17-17s7.6-17 17-17c9.3 0 16.9 7.6 16.9 16.9 0 9.5-7.6 17.1-16.9 17.1z m0-23.9c-3.8 0-7 3.1-7 7 0 3.8 3.1 7 7 7s7-3.1 7-7c-0.1-3.9-3.2-7-7-7z" fill="#707070" p-id="1605"></path><path d="M513 221c5.5 0 10 4.5 10 10v24c0 5.5-4.5 10-10 10s-10-4.5-10-10v-24c0-5.5 4.5-10 10-10z" fill="#FFFFFF" p-id="1606"></path><path d="M513 265c-5.5 0-10-4.5-10-10v-24c0-5.5 4.5-10 10-10s10 4.5 10 10v24c0 5.5-4.5 10-10 10z m0-34v24-24z" fill="#707070" p-id="1607"></path><path d="M513 718c5.5 0 10 4.5 10 10v24c0 5.5-4.5 10-10 10s-10-4.5-10-10v-24c0-5.5 4.5-10 10-10z" fill="#FFFFFF" p-id="1608"></path><path d="M513 762c-5.5 0-10-4.5-10-10v-24c0-5.5 4.5-10 10-10s10 4.5 10 10v24c0 5.5-4.5 10-10 10z m0-34v24-24z" fill="#707070" p-id="1609"></path><path d="M286 492c0 5.5-4.5 10-10 10h-24c-5.5 0-10-4.5-10-10s4.5-10 10-10h24c5.5 0 10 4.5 10 10z" fill="#FFFFFF" p-id="1610"></path><path d="M276 502h-24c-5.5 0-10-4.5-10-10s4.5-10 10-10h24c5.5 0 10 4.5 10 10s-4.5 10-10 10z m0-10h-24 24z" fill="#707070" p-id="1611"></path><path d="M783 492c0 5.5-4.5 10-10 10h-24c-5.5 0-10-4.5-10-10s4.5-10 10-10h24c5.5 0 10 4.5 10 10z" fill="#FFFFFF" p-id="1612"></path><path d="M773 502h-24c-5.5 0-10-4.5-10-10s4.5-10 10-10h24c5.5 0 10 4.5 10 10s-4.5 10-10 10z m0-10h-24 24z" fill="#707070" p-id="1613"></path><path d="M704.12 300.587c3.89 3.89 3.89 10.253 0 14.142l-16.97 16.97c-3.89 3.89-10.254 3.89-14.143 0-3.889-3.888-3.889-10.252 0-14.141l16.97-16.97c3.89-3.89 10.254-3.89 14.143 0z" fill="#FFFFFF" p-id="1614"></path><path d="M680.078 334.67c-2.687 0-5.161-1.061-7.07-2.97-1.91-1.91-2.97-4.384-2.97-7.071 0-2.687 1.06-5.162 2.97-7.071l16.97-16.97c1.91-1.91 4.384-2.97 7.071-2.97s5.162 1.06 7.071 2.97c3.89 3.888 3.89 10.252 0 14.141l-16.97 16.97c-1.91 1.91-4.385 2.97-7.072 2.97z m16.971-27.012l-16.97 16.97 16.97-16.97z" fill="#707070" p-id="1615"></path><path d="M352.688 652.02c3.89 3.888 3.89 10.252 0 14.141l-16.97 16.97c-3.89 3.89-10.254 3.89-14.143 0-3.889-3.888-3.889-10.252 0-14.141l16.97-16.97c3.89-3.89 10.254-3.89 14.143 0z" fill="#FFFFFF" p-id="1616"></path><path d="M328.646 686.102c-2.545 0-5.09-0.99-7.07-2.97-1.91-1.91-2.97-4.384-2.97-7.071s1.06-5.162 2.97-7.071l16.97-16.97c1.91-1.91 4.384-2.97 7.071-2.97 2.687 0 5.162 1.06 7.071 2.97 1.91 1.908 2.97 4.383 2.97 7.07s-1.06 5.162-2.97 7.071l-16.97 16.97c-1.98 1.98-4.526 2.97-7.072 2.97z m16.971-27.012l-16.97 16.97 16.97-16.97z" fill="#707070" p-id="1617"></path><path d="M351.98 331.7c-3.888 3.89-10.252 3.89-14.141 0l-16.97-16.97c-3.89-3.89-3.89-10.254 0-14.143 3.888-3.889 10.252-3.889 14.141 0l16.97 16.97c3.89 3.89 3.89 10.254 0 14.143z" fill="#FFFFFF" p-id="1618"></path><path d="M344.91 334.67c-2.687 0-5.162-1.06-7.071-2.97l-16.97-16.97c-1.91-1.91-2.97-4.385-2.97-7.072 0-2.687 1.06-5.161 2.97-7.07s4.383-2.97 7.07-2.97c2.687 0 5.162 1.06 7.071 2.97l16.97 16.97c1.91 1.91 2.97 4.384 2.97 7.071s-1.06 5.162-2.97 7.071-4.383 2.97-7.07 2.97z m-16.97-27.012l16.97 16.971-16.97-16.97z" fill="#707070" p-id="1619"></path><path d="M703.413 683.132c-3.89 3.89-10.253 3.89-14.142 0l-16.97-16.97c-3.89-3.89-3.89-10.254 0-14.143 3.888-3.889 10.252-3.889 14.141 0l16.97 16.97c3.89 3.89 3.89 10.254 0 14.143z" fill="#FFFFFF" p-id="1620"></path><path d="M696.342 686.102c-2.546 0-5.091-0.99-7.071-2.97l-16.97-16.97c-3.89-3.89-3.89-10.254 0-14.143 3.888-3.889 10.252-3.889 14.141 0l16.97 16.97c3.89 3.89 3.89 10.254 0 14.143-1.979 1.98-4.525 2.97-7.07 2.97z m-16.97-27.012l16.97 16.971-16.97-16.97z" fill="#707070" p-id="1621"></path></svg>